<svg width="98" height="36" viewBox="0 0 98 36" fill="none" xmlns="http://www.w3.org/2000/svg">
<path d="M13.7326 9.69559H15.537C15.6572 9.69559 15.7775 9.57552 15.7775 9.45545C15.7775 9.33538 15.6572 9.21531 15.537 9.21531H13.7326C13.6123 9.21531 13.492 9.33538 13.492 9.45545C13.492 9.57552 13.6123 9.69559 13.7326 9.69559ZM14.6348 25.5446C14.0935 25.5446 13.6724 25.9649 13.6724 26.5052C13.6724 27.0455 14.0935 27.4657 14.6348 27.4657C15.1761 27.4657 15.5971 27.0455 15.5971 26.5052C15.537 25.9649 15.1159 25.5446 14.6348 25.5446ZM10.0035 24.7042H19.266V11.0764H10.0035V24.7042ZM39.6555 20.2616C39.2345 20.2616 38.8135 20.3817 38.4526 20.6819C38.0917 20.982 37.8511 21.3422 37.7308 21.8225C37.6707 22.0627 37.6707 22.2428 37.6707 22.3628V23.6836C37.6707 24.2839 37.8511 24.7642 38.212 25.1844C38.5729 25.6047 39.054 25.7848 39.5954 25.7848C40.257 25.7848 40.7983 25.5446 41.1591 25.0043C41.52 24.464 41.7005 23.8036 41.7005 22.9632C41.7005 22.1827 41.52 21.5223 41.1591 21.0421C40.7983 20.5018 40.3171 20.2616 39.6555 20.2616ZM72.0742 20.1416C71.3524 20.1416 70.8111 20.4417 70.4502 21.1021C70.1495 21.6424 69.9691 22.2428 69.9691 23.0232C69.9691 23.7436 70.1495 24.404 70.4502 24.8843C70.8111 25.5446 71.3524 25.8448 72.0742 25.8448C72.7358 25.8448 73.2771 25.5446 73.638 24.8843C73.9989 24.344 74.1191 23.7436 74.1191 22.9632C74.1191 22.1827 73.9387 21.5824 73.638 21.1021C73.2771 20.4417 72.7959 20.1416 72.0742 20.1416ZM48.4368 20.2616C48.0158 20.2616 47.5948 20.3817 47.2339 20.6819C46.873 20.982 46.6324 21.3422 46.5121 21.8225C46.452 22.0627 46.452 22.2428 46.452 22.3628V23.6836C46.452 24.2839 46.6324 24.7642 46.9933 25.1844C47.3542 25.6047 47.8354 25.7848 48.3767 25.7848C49.0383 25.7848 49.5796 25.5446 49.9405 25.0043C50.3013 24.464 50.4818 23.8036 50.4818 22.9632C50.4818 22.1827 50.3013 21.5223 49.9405 21.0421C49.5796 20.5018 49.0984 20.2616 48.4368 20.2616ZM30.0923 17.38C29.972 17.8603 29.7916 18.5206 29.551 19.4812L28.6488 22.3628H31.6561L30.6937 19.4812C30.5133 19.181 30.3329 18.4606 30.0923 17.38ZM85.5469 20.0215C84.9454 20.0215 84.5244 20.2616 84.1034 20.7419C83.8027 21.1021 83.6222 21.5824 83.5621 22.1227H87.2911C87.2911 21.5824 87.1708 21.1621 86.9302 20.7419C86.6897 20.3217 86.2085 20.0215 85.5469 20.0215ZM37.9113 12.157C37.9113 12.097 37.9113 11.9769 37.9113 11.9169V11.3765C37.1895 11.3765 36.4678 11.4966 36.4678 12.157C36.4678 12.5772 36.7083 12.7573 37.0692 12.7573C37.4902 12.7573 37.791 12.4572 37.9113 12.157ZM28.2278 9.57552C28.1075 9.21531 28.0473 8.85511 27.927 8.4949C27.8669 8.79507 27.7466 9.21531 27.6263 9.57552L27.2053 10.9563H28.6488L28.2278 9.57552ZM87.231 9.15528C88.5542 9.15528 89.0353 10.2359 89.0353 11.1364C89.0353 11.3165 89.0354 11.4966 88.9752 11.5566H86.2085C86.2085 12.2771 86.81 12.6373 87.4716 12.6373C87.9527 12.6373 88.3136 12.5772 88.6143 12.4572L88.7948 13.1776C88.4339 13.3577 87.9527 13.4177 87.3513 13.4177C86.028 13.4177 85.2462 12.5772 85.2462 11.3165C85.186 10.2359 85.9078 9.15528 87.231 9.15528ZM70.6908 9.27535L70.751 9.87569C70.9314 9.57552 71.4126 9.15528 72.0742 9.15528C72.7959 9.15528 73.5177 9.63555 73.5177 10.8963V13.3577H72.4952V11.0163C72.4952 10.416 72.2546 9.99576 71.7133 9.99576C71.2923 9.99576 70.9916 10.2959 70.8713 10.5961C70.8111 10.6561 70.8111 10.8362 70.8111 10.8963V13.2976H69.7886V10.416C69.7886 9.93572 69.7886 9.57552 69.7285 9.21531H70.6908V9.27535ZM59.7443 9.15528C61.0675 9.15528 61.5486 10.2359 61.5486 11.1364C61.5486 11.3165 61.5486 11.4966 61.4885 11.5566H58.7218C58.7218 12.2771 59.3232 12.6373 59.9848 12.6373C60.466 12.6373 60.8269 12.5772 61.1276 12.4572L61.3081 13.1776C60.9472 13.3577 60.466 13.4177 59.8645 13.4177C58.5413 13.4177 57.7594 12.5772 57.7594 11.3165C57.7594 10.2359 58.421 9.15528 59.7443 9.15528ZM55.4739 7.35425H56.4964V13.3577H55.4739V7.35425ZM47.2339 9.93572C46.8129 9.93572 46.3918 10.0558 46.1513 10.2359L45.9708 9.57552C46.2716 9.39541 46.8129 9.21531 47.4745 9.21531C48.7977 9.21531 49.1586 10.0558 49.1586 10.9563V12.4572C49.1586 12.8174 49.1586 13.1776 49.2187 13.4177H48.2564L48.1962 12.9374C47.9556 13.2376 47.5346 13.4777 46.9933 13.4777C46.1513 13.4777 45.6701 12.8774 45.6701 12.2771C45.6701 11.2565 46.5723 10.7162 48.1361 10.7162V10.6561C48.0759 10.356 47.9556 9.93572 47.2339 9.93572ZM41.099 7.53435C41.4599 7.53435 41.7005 7.77449 41.7005 8.07466C41.7005 8.37483 41.4599 8.61497 41.099 8.61497C40.7381 8.61497 40.4975 8.37483 40.4975 8.07466C40.4975 7.77449 40.7381 7.53435 41.099 7.53435ZM41.5802 9.27535V13.4177H40.5577V9.27535H41.5802ZM27.2654 7.71445H28.5886L30.4532 13.4177H29.3104L28.7691 11.7968H26.9647L26.4835 13.4177H25.4009L27.2654 7.71445ZM20.3486 26.5652C20.3486 27.5858 19.5066 28.3663 18.5443 28.3663H10.7253C9.7028 28.3663 8.9209 27.5258 8.9209 26.5652V9.21531C8.9209 8.19473 9.76294 7.41428 10.7253 7.41428H18.5443C19.5667 7.41428 20.3486 8.25476 20.3486 9.21531V26.5652ZM32.9191 26.9855L31.8967 23.7436H28.2879L27.3256 26.9855H25.461L29.0097 15.9392H31.2351L34.8438 26.9855H32.9191ZM33.3402 13.3577H32.3177L30.814 9.21531H31.9568L32.6184 11.3165C32.7387 11.6767 32.7989 12.0369 32.9191 12.3371C32.9793 11.9769 33.0996 11.6767 33.2199 11.3165L33.8815 9.21531H34.9641L33.3402 13.3577ZM35.4453 12.2771C35.4453 11.2565 36.3475 10.7162 37.9113 10.7162V10.6561C37.9113 10.416 37.791 9.93572 37.0692 9.93572C36.6482 9.93572 36.2272 10.0558 35.9866 10.2359L35.8062 9.57552C36.1069 9.39541 36.6482 9.21531 37.3098 9.21531C38.633 9.21531 38.9939 10.0558 38.9939 10.9563V12.4572C38.9939 12.8174 38.9939 13.1776 39.054 13.4177H38.0917L38.0316 12.9374C37.791 13.2376 37.37 13.4777 36.8286 13.4777C35.9264 13.4777 35.4453 12.8774 35.4453 12.2771ZM42.4222 26.085C41.7606 26.8054 40.9186 27.1055 39.9562 27.1055C38.8736 27.1055 38.1518 26.7453 37.6707 25.9649V30.1673H35.8663V21.6424C35.8663 20.8019 35.8663 19.9014 35.8062 19.0009H37.3699L37.4902 20.2616H37.5504C38.1518 19.3011 39.054 18.8208 40.257 18.8208C41.2193 18.8208 42.0012 19.181 42.6026 19.9615C43.2041 20.6819 43.565 21.7024 43.565 22.9031C43.5048 24.2239 43.144 25.3045 42.4222 26.085ZM44.2867 13.3577H43.2041V7.35425H44.2266V13.3577H44.2867ZM51.2035 26.085C50.5419 26.8054 49.6999 27.1055 48.7375 27.1055C47.6549 27.1055 46.9332 26.7453 46.452 25.9649V30.1673H44.6476V21.6424C44.6476 20.8019 44.6476 19.9014 44.5875 19.0009H46.1513L46.2716 20.2616H46.3317C46.9332 19.3011 47.8354 18.8208 49.0383 18.8208C50.0006 18.8208 50.7825 19.181 51.384 19.9615C52.0456 20.6819 52.3463 21.7024 52.3463 22.9031C52.3463 24.2239 51.9253 25.3045 51.2035 26.085ZM52.4064 13.4777C51.8651 13.4777 51.384 13.2976 51.0832 12.7573L51.0231 13.3577H50.1209C50.1209 13.0575 50.181 12.6373 50.181 12.217V7.35425H51.2035V9.81565C51.4441 9.39541 51.9253 9.15528 52.5267 9.15528C53.5492 9.15528 54.271 9.99576 54.271 11.2565C54.3311 12.7573 53.3688 13.4777 52.4064 13.4777ZM61.3682 26.205C60.6464 26.8654 59.624 27.1656 58.3609 27.1656C57.158 27.1656 56.1956 26.9254 55.4739 26.5052L55.8949 25.0043C56.6768 25.4846 57.5189 25.6647 58.4812 25.6647C59.1428 25.6647 59.6841 25.4846 60.045 25.1844C60.4059 24.8843 60.5863 24.464 60.5863 23.9837C60.5863 23.5635 60.4059 23.1433 60.1051 22.8431C59.8044 22.5429 59.2631 22.2428 58.6015 22.0026C56.6768 21.2822 55.7145 20.2016 55.7145 18.8208C55.7145 17.9203 56.0754 17.1398 56.737 16.5995C57.3986 15.9992 58.3609 15.7591 59.4435 15.7591C60.466 15.7591 61.3081 15.9392 61.9697 16.2994L61.5486 17.7402C60.9472 17.38 60.2254 17.2599 59.4435 17.2599C58.8421 17.2599 58.3008 17.44 58 17.7402C57.6993 18.0404 57.579 18.3405 57.579 18.7608C57.579 19.181 57.7594 19.5412 58.0602 19.8414C58.3609 20.0815 58.9022 20.3817 59.6841 20.6819C60.6464 21.0421 61.3682 21.5223 61.7892 22.0026C62.2102 22.5429 62.4508 23.1433 62.4508 23.9237C62.3907 24.8242 62.0298 25.6047 61.3682 26.205ZM67.6234 20.3217H65.6386V24.2239C65.6386 25.1844 65.9994 25.7247 66.661 25.7247C66.9618 25.7247 67.2625 25.7247 67.4429 25.6647L67.5031 26.9855C67.1422 27.1055 66.7212 27.1656 66.1197 27.1656C65.398 27.1656 64.8567 26.9254 64.4958 26.5052C64.0748 26.085 63.8943 25.3645 63.8943 24.344V20.3217H62.7516V19.0009H63.8943V17.5601L65.6386 17.0198V19.0009H67.6234V20.3217ZM66.661 13.4777C65.5183 13.4777 64.6161 12.6973 64.6161 11.3765C64.6161 9.99576 65.5183 9.21531 66.7212 9.21531C67.9241 9.21531 68.7662 10.0558 68.7662 11.3165C68.7662 12.8174 67.6835 13.4777 66.661 13.4777ZM74.9612 25.9649C74.2394 26.7453 73.217 27.1656 72.014 27.1656C70.8111 27.1656 69.9089 26.8054 69.1872 26.0249C68.4654 25.2445 68.1647 24.2839 68.1647 23.0832C68.1647 21.8225 68.5256 20.8019 69.2473 20.0215C69.9691 19.241 70.9314 18.8208 72.1343 18.8208C73.3372 18.8208 74.2394 19.181 74.9612 19.9615C75.6228 20.7419 75.9837 21.7024 75.9837 22.9031C75.9837 24.1639 75.6228 25.1844 74.9612 25.9649ZM76.7656 9.27535H77.367V8.4949L78.3895 8.19473V9.27535H79.3519V10.0558H78.3895V11.8568C78.3895 12.3371 78.5098 12.6373 78.9308 12.6373C79.1113 12.6373 79.2316 12.6373 79.3519 12.5772V13.3577C79.1714 13.4177 78.9308 13.4777 78.57 13.4777C78.2091 13.4777 77.8482 13.3577 77.6678 13.1175C77.4272 12.8774 77.367 12.5172 77.367 11.9769V10.0558H76.7656V9.27535ZM81.3367 20.5618C81.1562 20.5018 80.9758 20.5018 80.7953 20.5018C80.1939 20.5018 79.7127 20.7419 79.3519 21.2222C79.0511 21.6424 78.9308 22.1827 78.9308 22.7831V26.9855H77.1264V21.5223C77.1264 20.6218 77.1264 19.7813 77.0663 19.0009H78.6301L78.6902 20.5018H78.7504C78.9308 19.9615 79.2316 19.5412 79.6526 19.241C80.0736 18.9409 80.4946 18.8208 80.9156 18.8208C81.0961 18.8208 81.2164 18.8208 81.3367 18.8208V20.5618ZM81.6374 10.8963V13.3577H80.6149V7.35425H81.6374V9.81565C81.7577 9.63555 81.9381 9.45545 82.1787 9.33538C82.4193 9.21531 82.6599 9.15528 82.9005 9.15528C83.6222 9.15528 84.344 9.63555 84.344 10.9563V13.3577H83.3215V11.0163C83.3215 10.416 83.0809 9.99576 82.5396 9.99576C82.1186 9.99576 81.8178 10.2959 81.6975 10.5961C81.6374 10.7162 81.6374 10.7762 81.6374 10.8963ZM88.9752 23.4434H83.6222C83.6222 24.2239 83.9229 24.8242 84.4041 25.2445C84.8251 25.6047 85.4266 25.7848 86.1483 25.7848C86.9302 25.7848 87.652 25.6647 88.3136 25.4246L88.6143 26.6853C87.8324 27.0455 86.9904 27.1656 85.9078 27.1656C84.6447 27.1656 83.6824 26.8054 82.9606 26.085C82.2389 25.3645 81.878 24.404 81.878 23.1433C81.878 21.9426 82.2389 20.922 82.8403 20.1416C83.5621 19.3011 84.4643 18.8808 85.6672 18.8808C86.81 18.8808 87.7121 19.3011 88.3136 20.1416C88.7948 20.8019 89.0353 21.6424 89.0353 22.663C89.0353 22.9031 88.9752 23.2033 88.9752 23.4434ZM52.226 9.99576C51.805 9.99576 51.384 10.2959 51.3238 10.7762C51.3238 10.8362 51.2637 10.9563 51.2637 11.0764V11.7368C51.2637 11.7968 51.2637 11.9169 51.2637 11.9769C51.384 12.3971 51.7448 12.6973 52.1659 12.6973C52.8275 12.6973 53.1883 12.157 53.1883 11.3165C53.2485 10.5961 52.8876 9.99576 52.226 9.99576ZM59.6841 9.87569C59.0225 9.87569 58.7819 10.476 58.7218 10.8963H60.5262C60.5863 10.5361 60.4059 9.87569 59.6841 9.87569ZM66.7212 9.93572C65.9994 9.93572 65.6987 10.6561 65.6987 11.3165C65.6987 12.097 66.1197 12.6973 66.7212 12.6973C67.3227 12.6973 67.7437 12.097 67.7437 11.3165C67.6835 10.6561 67.3828 9.93572 66.7212 9.93572ZM46.6324 12.157C46.6324 12.5772 46.873 12.7573 47.2339 12.7573C47.6549 12.7573 47.9556 12.4572 48.0759 12.217C48.0759 12.157 48.0759 12.0369 48.0759 11.9769V11.4366C47.3542 11.3765 46.6324 11.4966 46.6324 12.157ZM87.1708 9.87569C86.5092 9.87569 86.2686 10.476 86.2085 10.8963H88.0129C88.0129 10.5361 87.8324 9.87569 87.1708 9.87569Z" fill="white"/>
<path d="M92.7639 35.0901H5.13124C2.54496 35.0901 0.5 32.9889 0.5 30.4674V5.31307C0.5 2.79163 2.60511 0.69043 5.13124 0.69043H92.7639C95.3502 0.69043 97.3952 2.79163 97.3952 5.31307V30.4674C97.3952 32.9889 95.3502 35.0901 92.7639 35.0901ZM5.13124 1.89112C3.26672 1.89112 1.70292 3.45201 1.70292 5.31307V30.4674C1.70292 32.3885 3.26672 33.8894 5.13124 33.8894H92.7639C94.6886 33.8894 96.1923 32.3285 96.1923 30.4674V5.31307C96.1923 3.39197 94.6285 1.89112 92.7639 1.89112H5.13124Z" fill="white"/>
</svg>
