<svg width="104" height="36" viewBox="0 0 104 36" fill="none" xmlns="http://www.w3.org/2000/svg">
<path d="M98.0472 35.3488H5.60247C2.7811 35.3488 0.5 33.0677 0.5 30.2463V6.05462C0.5 3.23325 2.7811 0.952148 5.60247 0.952148H98.0472C100.869 0.952148 103.15 3.23325 103.15 6.05462V30.2463C103.15 33.0677 100.869 35.3488 98.0472 35.3488ZM5.60247 2.15273C3.44142 2.15273 1.70058 3.89357 1.70058 6.05462V30.2463C1.70058 32.4074 3.44142 34.1482 5.60247 34.1482H98.0472C100.208 34.1482 101.949 32.4074 101.949 30.2463V6.05462C101.949 3.89357 100.208 2.15273 98.0472 2.15273H5.60247Z" fill="white"/>
<path d="M34.6559 10.9769H33.9956C33.9956 10.8569 33.9356 10.6167 33.8155 10.1965H32.8551C32.735 10.6167 32.675 10.9169 32.675 10.9769H32.0146C32.0146 10.9169 32.1947 10.4967 32.4949 9.59624C32.8551 8.75584 32.9751 8.27561 32.9751 8.21558H33.7555C33.7555 8.27561 33.9356 8.75584 34.2357 9.59624C34.4758 10.4367 34.6559 10.9169 34.6559 10.9769ZM33.6354 9.77633C33.3953 9.05598 33.2753 8.63578 33.2753 8.57575H33.2152C33.2152 8.63578 33.0952 9.05598 32.8551 9.77633H33.6354Z" fill="white"/>
<path d="M37.3572 10.9769H36.817C36.817 10.9169 36.6369 10.6167 36.2167 10.0765C35.7965 9.47619 35.5564 9.11601 35.4963 8.8759H35.4363C35.4963 9.17604 35.4963 9.47619 35.4963 9.7163C35.4963 10.0765 35.4963 10.4967 35.4963 10.9769H34.9561C34.9561 10.5567 35.0161 10.0765 35.0161 9.53622C35.0161 8.99595 35.0161 8.57575 34.9561 8.21558H35.6164C35.6164 8.27561 35.7965 8.57575 36.1566 9.11601C36.5168 9.65627 36.7569 10.0765 36.817 10.2566H36.877C36.817 9.95642 36.817 9.65627 36.817 9.41616C36.817 9.05598 36.817 8.63578 36.817 8.21558H37.3572C37.3572 8.57575 37.3572 8.99595 37.3572 9.53622C37.3572 10.0765 37.3572 10.5567 37.3572 10.9769Z" fill="white"/>
<path d="M40.4784 9.47622C40.4784 9.89642 40.3583 10.2566 40.1182 10.5567C39.8781 10.8569 39.5179 11.037 39.0377 11.037C38.8576 11.037 38.5574 11.037 38.1973 11.037C38.1973 10.6168 38.1973 10.1365 38.1973 9.59627C38.1973 9.05601 38.1973 8.63581 38.1973 8.27563H38.5574C38.6175 8.27563 38.7375 8.27563 38.8576 8.27563C38.9776 8.27563 39.0377 8.27563 39.0977 8.27563C39.638 8.27563 39.9981 8.39569 40.2383 8.63581C40.3583 8.8159 40.4784 9.11604 40.4784 9.47622ZM39.8781 9.59627C39.8781 9.29613 39.818 9.11604 39.638 8.93595C39.4579 8.75587 39.2178 8.63581 38.9176 8.63581C38.8576 8.63581 38.7976 8.63581 38.6775 8.63581C38.6775 8.93595 38.6775 9.2361 38.6775 9.53625C38.6775 9.89642 38.6775 10.1966 38.6775 10.5567C38.7976 10.5567 38.8576 10.5567 38.9776 10.5567C39.2778 10.5567 39.5179 10.4367 39.638 10.2566C39.818 10.0765 39.8781 9.83639 39.8781 9.59627Z" fill="white"/>
<path d="M43.2997 10.9769H42.6393C42.4593 10.4967 42.3392 10.1365 42.2792 10.0164C42.2191 9.89636 42.039 9.83633 41.859 9.83633C41.7989 9.83633 41.6789 9.83633 41.6188 9.83633C41.6188 10.1965 41.6188 10.5567 41.6188 10.9169H41.0186C41.0186 10.4967 41.0186 10.0164 41.0186 9.47616C41.0186 8.9359 41.0186 8.51569 41.0186 8.15552H41.3787C41.4388 8.15552 41.4988 8.15552 41.6188 8.15552C41.7389 8.15552 41.859 8.15552 41.979 8.15552C42.6393 8.15552 42.9395 8.39563 42.9395 8.81584C42.9395 9.17601 42.7594 9.41613 42.3992 9.53619V9.59622C42.5193 9.65624 42.6393 9.7763 42.7594 9.95639C42.9995 10.1365 43.1196 10.4967 43.2997 10.9769ZM42.5193 8.99592C42.5193 8.69578 42.3392 8.57572 41.979 8.57572C41.859 8.57572 41.7389 8.57572 41.6188 8.57572C41.6188 8.81584 41.6188 9.05595 41.6188 9.41613C41.6789 9.41613 41.7389 9.41613 41.7989 9.41613C42.2792 9.47616 42.5193 9.3561 42.5193 8.99592Z" fill="white"/>
<path d="M46.3615 9.53616C46.3615 9.95636 46.2414 10.3165 45.9413 10.6167C45.7011 10.9168 45.341 11.0369 44.9808 11.0369C44.6206 11.0369 44.3205 10.9168 44.0203 10.6167C43.7802 10.3766 43.6602 10.0164 43.6602 9.59619C43.6602 9.17598 43.7802 8.81581 44.0804 8.51566C44.3205 8.21552 44.6807 8.09546 45.0408 8.09546C45.401 8.09546 45.7012 8.21552 46.0013 8.51566C46.2414 8.81581 46.3615 9.11595 46.3615 9.53616ZM45.7612 9.59619C45.7612 9.29604 45.7011 9.05592 45.5211 8.87584C45.341 8.69575 45.1609 8.57569 44.9808 8.57569C44.8007 8.57569 44.6206 8.69575 44.4405 8.87584C44.3205 9.05592 44.2004 9.29604 44.2004 9.59619C44.2004 9.89633 44.2604 10.1364 44.4405 10.3165C44.6206 10.4966 44.8007 10.6167 44.9808 10.6167C45.1609 10.6167 45.341 10.4966 45.5211 10.3165C45.7011 10.1364 45.7612 9.89633 45.7612 9.59619Z" fill="white"/>
<path d="M47.5622 10.9769H46.9619C46.9619 10.5567 46.9619 10.0765 46.9619 9.53622C46.9619 8.99595 46.9619 8.57575 46.9619 8.21558H47.5622C47.5622 8.57575 47.5622 8.99595 47.5622 9.53622C47.5622 10.0765 47.5622 10.5567 47.5622 10.9769Z" fill="white"/>
<path d="M50.6239 9.47622C50.6239 9.89642 50.5038 10.2566 50.2637 10.5567C50.0236 10.8569 49.6634 11.037 49.1832 11.037C48.9431 11.037 48.7029 11.037 48.3428 11.037C48.3428 10.6168 48.3428 10.1365 48.3428 9.59627C48.3428 9.05601 48.3428 8.63581 48.3428 8.27563H48.703C48.763 8.27563 48.883 8.27563 49.0031 8.27563C49.1232 8.27563 49.1832 8.27563 49.2432 8.27563C49.7835 8.27563 50.1437 8.39569 50.3838 8.63581C50.5639 8.8159 50.6239 9.11604 50.6239 9.47622ZM50.0836 9.59627C50.0836 9.29613 50.0236 9.11604 49.8435 8.93595C49.6634 8.75587 49.4233 8.63581 49.1232 8.63581C49.0631 8.63581 49.0031 8.63581 48.883 8.63581C48.883 8.93595 48.883 9.2361 48.883 9.53625C48.883 9.89642 48.883 10.1966 48.883 10.5567C49.0031 10.5567 49.0631 10.5567 49.1832 10.5567C49.4833 10.5567 49.7234 10.4367 49.8435 10.2566C50.0236 10.0765 50.0836 9.83639 50.0836 9.59627Z" fill="white"/>
<path d="M54.7653 10.9769H54.105C54.105 10.8569 54.045 10.6167 53.9249 10.1965H52.9644C52.8444 10.6167 52.7843 10.9169 52.7843 10.9769H52.124C52.124 10.9169 52.3041 10.4967 52.6042 9.59624C52.9644 8.75584 53.0845 8.27561 53.0845 8.21558H53.8649C53.8649 8.27561 54.045 8.75584 54.3451 9.59624C54.5852 10.4367 54.7653 10.9169 54.7653 10.9769ZM53.7448 9.77633C53.5047 9.05598 53.3846 8.63578 53.3846 8.57575H53.3246C53.3246 8.63578 53.2045 9.05598 52.9644 9.77633H53.7448Z" fill="white"/>
<path d="M57.227 8.93595C57.227 9.29613 57.107 9.53625 56.8669 9.71633C56.6268 9.89642 56.3266 9.95645 55.9664 9.95645C55.9064 9.95645 55.8464 9.95645 55.8464 9.95645C55.8464 10.1966 55.8464 10.5567 55.8464 11.037H55.2461C55.2461 10.6168 55.2461 10.1365 55.2461 9.59627C55.2461 9.05601 55.2461 8.63581 55.2461 8.27563H55.6063C55.6663 8.27563 55.7863 8.27563 55.9064 8.27563C56.0265 8.27563 56.2065 8.27563 56.2666 8.27563C56.5067 8.27563 56.7468 8.33566 56.9269 8.45572C57.167 8.51575 57.227 8.69584 57.227 8.93595ZM56.6868 9.05601C56.6868 8.75587 56.5067 8.57578 56.0865 8.57578C55.9664 8.57578 55.9064 8.57578 55.7864 8.63581C55.7864 8.87593 55.7864 9.2361 55.7864 9.53625C55.8464 9.53625 55.8464 9.53625 55.9064 9.53625C56.4467 9.53625 56.6868 9.35616 56.6868 9.05601Z" fill="white"/>
<path d="M59.8081 8.93595C59.8081 9.29613 59.6881 9.53625 59.4479 9.71633C59.2078 9.89642 58.9077 9.95645 58.5475 9.95645C58.4875 9.95645 58.4274 9.95645 58.4274 9.95645C58.4274 10.1966 58.4274 10.5567 58.4274 11.037H57.8271C57.8271 10.6168 57.8271 10.1365 57.8271 9.59627C57.8271 9.05601 57.8271 8.63581 57.8271 8.27563H58.1873C58.2474 8.27563 58.3674 8.27563 58.4875 8.27563C58.6075 8.27563 58.7876 8.27563 58.8476 8.27563C59.0878 8.27563 59.3279 8.33566 59.508 8.45572C59.688 8.51575 59.8081 8.69584 59.8081 8.93595ZM59.2078 9.05601C59.2078 8.75587 59.0277 8.57578 58.6075 8.57578C58.4875 8.57578 58.4274 8.57578 58.3074 8.63581C58.3074 8.87593 58.3074 9.2361 58.3074 9.53625C58.3674 9.53625 58.3674 9.53625 58.4274 9.53625C58.9677 9.53625 59.2078 9.35616 59.2078 9.05601Z" fill="white"/>
<path d="M63.9503 9.53616C63.9503 9.95636 63.8303 10.3165 63.5301 10.6167C63.29 10.9168 62.9298 11.0369 62.5697 11.0369C62.2095 11.0369 61.9093 10.9168 61.6092 10.6167C61.3691 10.3766 61.249 10.0164 61.249 9.59619C61.249 9.17598 61.3691 8.81581 61.6692 8.51566C61.9093 8.21552 62.2695 8.09546 62.6297 8.09546C62.9899 8.09546 63.29 8.21552 63.5902 8.51566C63.8303 8.81581 63.9503 9.11595 63.9503 9.53616ZM63.35 9.59619C63.35 9.29604 63.29 9.05592 63.1099 8.87584C62.9298 8.69575 62.7497 8.57569 62.5697 8.57569C62.3896 8.57569 62.2095 8.69575 62.0294 8.87584C61.9093 9.05592 61.7893 9.29604 61.7893 9.59619C61.7893 9.89633 61.8493 10.1364 62.0294 10.3165C62.2095 10.4966 62.3896 10.6167 62.5697 10.6167C62.7497 10.6167 62.9298 10.4966 63.1099 10.3165C63.29 10.1364 63.35 9.89633 63.35 9.59619Z" fill="white"/>
<path d="M66.8319 10.9769H66.2916C66.2916 10.9169 66.1115 10.6167 65.6913 10.0765C65.2711 9.47619 65.031 9.11601 64.971 8.8759H65.031C65.091 9.17604 65.091 9.47619 65.091 9.7163C65.091 10.0765 65.091 10.4967 65.091 10.9769H64.5508C64.5508 10.5567 64.6108 10.0765 64.6108 9.53622C64.6108 8.99595 64.6108 8.57575 64.5508 8.21558H65.2111C65.2111 8.27561 65.3912 8.57575 65.7514 9.11601C66.1115 9.65627 66.3516 10.0765 66.4117 10.2566H66.4717C66.4117 9.95642 66.4117 9.65627 66.4117 9.41616C66.4117 9.05598 66.4117 8.63578 66.4117 8.21558H66.9519C66.9519 8.57575 66.9519 8.99595 66.9519 9.53622C66.8319 10.0765 66.8319 10.5567 66.8319 10.9769Z" fill="white"/>
<path d="M41.7407 19.8613C41.7407 21.2419 41.3205 22.3225 40.5402 23.1629C39.6397 24.1233 38.3791 24.6036 36.9384 24.6036C35.4977 24.6036 34.2971 24.1233 33.3367 23.1028C32.3162 22.1424 31.8359 20.8818 31.8359 19.4411C31.8359 18.0004 32.3162 16.7398 33.3367 15.7793C34.3572 14.8188 35.5577 14.2786 36.9384 14.2786C37.6588 14.2786 38.3191 14.3986 38.9794 14.6988C39.6397 14.9989 40.1199 15.3591 40.5402 15.7793L39.6997 16.6197C39.0394 15.8393 38.139 15.4791 36.9984 15.4791C35.9779 15.4791 35.0775 15.8393 34.2971 16.5597C33.5168 17.28 33.1566 18.2405 33.1566 19.381C33.1566 20.5216 33.5168 21.4821 34.2971 22.2024C35.0775 22.9228 35.9779 23.2829 36.9984 23.2829C38.079 23.2829 39.0394 22.9228 39.7598 22.2024C40.24 21.7222 40.5402 21.0618 40.6002 20.2214H36.9984V19.0209H41.8008C41.6807 19.381 41.7407 19.6212 41.7407 19.8613Z" fill="white"/>
<path d="M43.2413 18.4807C43.9017 17.8204 44.7421 17.4602 45.7025 17.4602C46.723 17.4602 47.5634 17.8204 48.1637 18.4807C48.8241 19.141 49.1242 20.0415 49.1242 21.0619C49.1242 22.0824 48.8241 22.9229 48.1637 23.6432C47.5034 24.3035 46.663 24.6637 45.7025 24.6637C44.6821 24.6637 43.8416 24.3035 43.2413 23.6432C42.581 22.9829 42.2809 22.0824 42.2809 21.0619C42.2209 19.9814 42.581 19.141 43.2413 18.4807ZM44.1418 22.8028C44.562 23.223 45.1023 23.4631 45.7025 23.4631C46.3028 23.4631 46.8431 23.223 47.2633 22.8028C47.6835 22.3826 47.9236 21.7823 47.9236 21.0619C47.9236 20.3416 47.6835 19.7413 47.2633 19.3211C46.8431 18.9009 46.3028 18.6608 45.7025 18.6608C45.1023 18.6608 44.562 18.9009 44.1418 19.3211C43.7216 19.7413 43.4815 20.3416 43.4815 21.0619C43.5415 21.7823 43.7216 22.3226 44.1418 22.8028Z" fill="white"/>
<path d="M50.565 18.4807C51.2253 17.8204 52.0657 17.4602 53.0261 17.4602C54.0466 17.4602 54.8871 17.8204 55.4873 18.4807C56.1477 19.141 56.4478 20.0415 56.4478 21.0619C56.4478 22.0824 56.1477 22.9229 55.4873 23.6432C54.827 24.3035 53.9866 24.6637 53.0261 24.6637C52.0057 24.6637 51.1652 24.3035 50.565 23.6432C49.9046 22.9829 49.6045 22.0824 49.6045 21.0619C49.6045 19.9814 49.9647 19.141 50.565 18.4807ZM51.5254 22.8028C51.9456 23.223 52.4859 23.4631 53.0862 23.4631C53.6865 23.4631 54.2267 23.223 54.6469 22.8028C55.0671 22.3826 55.3072 21.7823 55.3072 21.0619C55.3072 20.3416 55.0671 19.7413 54.6469 19.3211C54.2267 18.9009 53.6865 18.6608 53.0862 18.6608C52.4859 18.6608 51.9456 18.9009 51.5254 19.3211C51.1052 19.7413 50.8651 20.3416 50.8651 21.0619C50.8651 21.7823 51.1052 22.3226 51.5254 22.8028Z" fill="white"/>
<path d="M60.2898 27.6051C59.5095 27.6051 58.8491 27.425 58.3089 27.0048C57.8286 26.5846 57.4685 26.1644 57.2283 25.6242L58.3689 25.1439C58.4889 25.5041 58.7291 25.8042 59.0892 26.0444C59.4494 26.2845 59.8096 26.4045 60.2898 26.4045C61.0102 26.4045 61.5504 26.2245 61.9106 25.8042C62.3308 25.384 62.5109 24.8438 62.5109 24.1234V23.4631H62.4509C62.2108 23.7633 61.9106 24.0634 61.4904 24.3035C61.0702 24.5436 60.65 24.6637 60.1097 24.6637C59.2093 24.6637 58.489 24.3035 57.8286 23.6432C57.1683 22.9829 56.8682 22.0824 56.8682 21.0619C56.8682 20.0415 57.1683 19.201 57.8286 18.4807C58.489 17.8204 59.2093 17.4602 60.1097 17.4602C60.59 17.4602 61.0702 17.5803 61.4904 17.7604C61.9106 18.0005 62.2108 18.2406 62.4509 18.6008H62.5109V17.6403H63.7115V24.0634C63.7115 25.204 63.3513 26.1044 62.691 26.7047C62.0907 27.305 61.2503 27.6051 60.2898 27.6051ZM60.4099 23.4631C61.0102 23.4631 61.4904 23.223 61.9106 22.8028C62.3308 22.3826 62.5109 21.7823 62.5109 21.0019C62.5109 20.2816 62.3308 19.6813 61.9106 19.201C61.4904 18.7808 61.0102 18.5407 60.4099 18.5407C59.8096 18.5407 59.3294 18.7808 58.9091 19.201C58.4889 19.6213 58.2488 20.2215 58.2488 20.9419C58.2488 21.6622 58.4889 22.2625 58.9091 22.6827C59.2693 23.223 59.8096 23.4631 60.4099 23.4631Z" fill="white"/>
<path d="M66.2323 24.4234H64.9717V14.5186H66.2323V24.4234Z" fill="white"/>
<path d="M70.3748 24.6036C69.3543 24.6036 68.5139 24.2435 67.9136 23.5831C67.2533 22.9228 66.9531 22.0224 66.9531 21.0019C66.9531 20.0414 67.2533 19.201 67.8536 18.4807C68.4539 17.7603 69.2342 17.4001 70.2547 17.4001C71.2752 17.4001 72.0556 17.7003 72.6559 18.3606C73.2562 19.0209 73.5563 19.8613 73.5563 21.0019V21.242H68.2137C68.2737 21.9023 68.4538 22.4426 68.874 22.8628C69.2942 23.283 69.7745 23.4631 70.3147 23.4631C71.2152 23.4631 71.8155 23.1029 72.1756 22.3225L73.3162 22.8028C73.0761 23.343 72.7159 23.7632 72.2357 24.1234C71.7554 24.4235 71.1551 24.6036 70.3748 24.6036ZM72.2357 20.2215C72.2357 19.8613 72.0556 19.4411 71.6954 19.141C71.3953 18.7808 70.915 18.6007 70.2547 18.6007C69.7745 18.6007 69.3543 18.7208 69.0541 19.0209C68.754 19.3211 68.4538 19.6813 68.3338 20.2215H72.2357Z" fill="white"/>
<path d="M78.5389 24.4234H77.2783V14.5186H80.64C81.4804 14.5186 82.2007 14.8187 82.801 15.359C83.4013 15.8992 83.7014 16.6196 83.7014 17.46C83.7014 18.3004 83.4013 19.0207 82.801 19.561C82.2007 20.1013 81.4804 20.4014 80.64 20.4014H78.5389V24.4234ZM78.5389 19.2008H80.64C81.1802 19.2008 81.6004 19.0207 81.9006 18.6606C82.2007 18.3004 82.3808 17.8802 82.3808 17.46C82.3808 17.0398 82.2007 16.6196 81.9006 16.2594C81.6004 15.8992 81.1802 15.7191 80.64 15.7191H78.5389V19.2008Z" fill="white"/>
<path d="M85.8016 24.4234H84.541V14.5186H85.8016V24.4234Z" fill="white"/>
<path d="M89.0437 24.6037C88.3233 24.6037 87.723 24.4236 87.2428 24.0034C86.7626 23.5832 86.5225 23.0429 86.5225 22.3826C86.5225 21.6622 86.8226 21.0619 87.3629 20.6417C87.9031 20.2215 88.6235 20.0415 89.4639 20.0415C90.1842 20.0415 90.8446 20.1615 91.2648 20.4617V20.2816C91.2648 19.8013 91.0847 19.3811 90.7845 19.081C90.4244 18.7808 90.0041 18.6608 89.5239 18.6608C89.1637 18.6608 88.8036 18.7208 88.5034 18.9009C88.2033 19.081 88.0232 19.3211 87.9031 19.6213L86.7626 19.141C86.9427 18.7208 87.2428 18.3606 87.663 18.0005C88.1433 17.6403 88.7436 17.4602 89.4639 17.4602C90.3043 17.4602 91.0246 17.7003 91.6249 18.2406C92.1652 18.7208 92.4654 19.4412 92.4654 20.4016V24.4836H91.2648V23.5231H91.2047C90.7845 24.2435 90.0642 24.6037 89.0437 24.6037ZM89.2838 23.4631C89.8241 23.4631 90.3043 23.283 90.7245 22.8628C91.1447 22.5026 91.3848 22.0224 91.3848 21.4822C91.0246 21.182 90.4844 21.0619 89.764 21.0619C89.1638 21.0619 88.6835 21.182 88.3834 21.4822C88.0832 21.7223 87.9031 22.0824 87.9031 22.4426C87.9031 22.7428 88.0232 23.0429 88.3233 23.223C88.5634 23.3431 88.9236 23.4631 89.2838 23.4631Z" fill="white"/>
<path d="M95.2868 27.3648H93.9662L95.5269 23.9432L92.7656 17.6401H94.1463L96.1272 22.5025L98.1082 17.6401H99.4889L95.2868 27.3648Z" fill="white"/>
<path d="M8.12402 19.321C8.12402 16.1995 8.12402 13.0179 8.12402 9.89643C8.12402 9.53625 8.18406 9.17608 8.4842 8.87593C8.60426 8.75587 8.66429 8.75587 8.78435 8.87593C10.8854 11.037 13.0464 13.198 15.1474 15.3591C16.5281 16.7397 17.9088 18.1804 19.2894 19.5611C19.4095 19.6812 19.4095 19.7412 19.2894 19.9213C15.9278 23.2829 12.5662 26.6445 9.20455 30.0062C9.02446 30.1863 8.84438 30.1863 8.66429 30.0662C8.30412 29.7661 8.18406 29.4059 8.18406 28.9857C8.18406 27.1248 8.18406 25.2639 8.18406 23.403C8.12403 21.9623 8.12402 20.6416 8.12402 19.321Z" fill="white"/>
<path d="M9.38477 8.45581C9.62488 8.45581 9.80497 8.51584 9.98506 8.6359C14.3071 11.0371 18.6292 13.4382 22.8913 15.8994C23.0714 16.0195 23.0714 16.0795 22.9513 16.1996C21.9909 17.16 21.0304 18.1205 20.0699 19.081C19.9499 19.201 19.8899 19.261 19.7698 19.081C16.3481 15.5993 12.9265 12.1176 9.44479 8.57587C9.44479 8.57587 9.44479 8.51584 9.38477 8.45581Z" fill="white"/>
<path d="M10.3457 29.8262C13.4672 26.6447 16.5887 23.5231 19.7102 20.3416C19.8903 20.1615 20.0104 20.1615 20.1905 20.3416C20.9709 21.182 21.8113 21.9624 22.5916 22.8028C22.7117 22.9229 22.7717 22.9829 22.5316 23.1029C18.5097 25.324 14.4877 27.4851 10.4658 29.7061C10.4057 29.7662 10.3457 29.8262 10.3457 29.8262Z" fill="white"/>
<path d="M28.1742 19.381C28.1742 19.7412 27.9941 19.9813 27.7539 20.1614C27.5739 20.2815 27.3337 20.4015 27.1537 20.5216C25.9531 21.1819 24.6925 21.8422 23.4919 22.5626C23.3118 22.6826 23.2518 22.6226 23.0717 22.5025C22.2313 21.6021 21.3308 20.7017 20.4904 19.8613C20.3704 19.7412 20.3704 19.6812 20.4904 19.5611C21.5109 18.5406 22.5314 17.5201 23.5519 16.5597C23.672 16.4396 23.732 16.4396 23.9121 16.4996C25.1127 17.16 26.3133 17.8203 27.5138 18.5406C27.874 18.6607 28.1742 18.9608 28.1742 19.381Z" fill="white"/>
</svg>
