<svg width="27" height="27" viewBox="0 0 27 27" fill="none" xmlns="http://www.w3.org/2000/svg">
<g clip-path="url(#clip0_4705_8118)">
<path d="M19.0584 26.5098H7.85367C3.77415 26.5098 0.456055 23.1917 0.456055 19.1121V7.90738C0.456055 3.82786 3.77415 0.509766 7.85367 0.509766H19.0522C23.138 0.509766 26.4561 3.82786 26.4561 7.90738V19.106C26.4561 23.1917 23.138 26.5098 19.0584 26.5098ZM7.85367 2.73834C4.99986 2.73834 2.68463 5.05977 2.68463 7.90738V19.106C2.68463 21.9598 5.00605 24.275 7.85367 24.275H19.0522C21.9061 24.275 24.2213 21.9536 24.2213 19.106V7.90738C24.2213 5.05358 21.8999 2.73834 19.0522 2.73834H7.85367Z" fill="white"/>
<path d="M13.4565 20.1645C9.78557 20.1645 6.80176 17.1807 6.80176 13.5097C6.80176 9.83879 9.78557 6.85498 13.4565 6.85498C17.1275 6.85498 20.1113 9.83879 20.1113 13.5097C20.1113 17.1807 17.1275 20.1645 13.4565 20.1645ZM13.4565 9.08355C11.0175 9.08355 9.03033 11.0707 9.03033 13.5097C9.03033 15.9488 11.0175 17.9359 13.4565 17.9359C15.8956 17.9359 17.8827 15.9488 17.8827 13.5097C17.8827 11.0707 15.8956 9.08355 13.4565 9.08355Z" fill="white"/>
<path d="M21.999 6.47125C21.999 7.35649 21.2809 8.0684 20.4018 8.0684C19.5166 8.0684 18.8047 7.3503 18.8047 6.47125C18.8047 5.58602 19.5228 4.86792 20.4018 4.86792C21.2809 4.87411 21.999 5.58602 21.999 6.47125Z" fill="white"/>
</g>
<defs>
<clipPath id="clip0_4705_8118">
<rect width="26" height="26" fill="white" transform="translate(0.456055 0.509766)"/>
</clipPath>
</defs>
</svg>
